# xmcd
#
# Track frame offsets: 
#        182
#        16610
#        32282
#        44937
#        60407
#        75282
#        88420
#        101195
#        116380
#        128990
#        145350
#
# Disc length: 2177 seconds
#
# Revision: 3
# Processed by: cddbd v1.5PL3 Copyright (c) Steve Scherf et al.
# Submitted via: ExactAudioCopy v0.90b4
#
DISCID=8b087f0b
DTITLE=Brother Phelps - Let Go
DYEAR=1993
DGENRE=Country
TTITLE0=Let Go
TTITLE1=What Goes Around
TTITLE2=Were You Really Livin'
TTITLE3=Ever-Changing Woman
TTITLE4=Hot Water
TTITLE5=Everything Will Work Out Fine
TTITLE6=Inside Outside
TTITLE7=Playin' House
TTITLE8=Four-Leaf Clover
TTITLE9=Eagle Over Angel
TTITLE10=Watch Your Step
EXTD=
EXTT0=
EXTT1=
EXTT2=
EXTT3=
EXTT4=
EXTT5=
EXTT6=
EXTT7=
EXTT8=
EXTT9=
EXTT10=
PLAYORDER=
